<svg xmlns="http://www.w3.org/2000/svg" version="1.1" xmlns:xlink="http://www.w3.org/1999/xlink" xmlns:svgjs="http://svgjs.dev/svgjs" width="1000" height="1000" viewBox="0 0 1000 1000"><rect width="1000" height="1000" fill="#ffffff"></rect><g transform="matrix(0.7,0,0,0.7,149.57575757575756,252.54999999999998)"><svg viewBox="0 0 396 280" data-background-color="#ffffff" preserveAspectRatio="xMidYMid meet" height="707" width="1000" xmlns="http://www.w3.org/2000/svg" xmlns:xlink="http://www.w3.org/1999/xlink"><g id="tight-bounds" transform="matrix(1,0,0,1,0.2400000000000091,0)"><svg viewBox="0 0 395.52 280" height="280" width="395.52"><g><svg viewBox="0 0 395.52 280" height="280" width="395.52"><g><svg viewBox="0 0 395.52 280" height="280" width="395.52"><g><svg viewBox="0 0 395.52 280" height="280" width="395.52"><g><svg viewBox="0 0 395.52 280" height="280" width="395.52"><g transform="matrix(1,0,0,1,140.7855237606147,74.00336708925556)"><svg viewBox="0 0 113.94895247877056 131.99326582148888" height="131.99326582148888" width="113.94895247877056"><g><svg xmlns="http://www.w3.org/2000/svg" xmlns:xlink="http://www.w3.org/1999/xlink" version="1.1" x="0" y="0" viewBox="9.63800048828125 3.246999979019165 80.7239990234375 93.50699615478516" enable-background="new 0 0 100 100" xml:space="preserve" height="131.99326582148888" width="113.94895247877056" class="icon-o-0" data-fill-palette-color="accent" id="o-0"><g fill="#0023ff" data-fill-palette-color="accent"><g fill="#0023ff" data-fill-palette-color="accent"><polygon points="36.703,11.011 9.638,26.636 9.638,38.757 36.703,23.131 63.767,38.757 63.767,26.636   " fill="#0023ff" data-fill-palette-color="accent"></polygon></g><g fill="#0023ff" data-fill-palette-color="accent"><polygon points="63.298,89.092 36.233,73.467 36.233,61.348 63.298,76.973 90.362,61.348 90.362,73.467   " fill="#0023ff" data-fill-palette-color="accent"></polygon></g><g fill="#0023ff" data-fill-palette-color="accent"><polygon points="9.638,42.012 36.703,26.386 47.198,32.446 20.134,48.072 20.134,79.324 9.638,73.264   " fill="#0023ff" data-fill-palette-color="accent"></polygon></g><g fill="#0023ff" data-fill-palette-color="accent"><polygon points="77.083,18.872 50.018,3.247 39.522,9.307 66.586,24.932 66.586,56.184 77.083,50.124   " fill="#0023ff" data-fill-palette-color="accent"></polygon></g><g fill="#0023ff" data-fill-palette-color="accent"><polygon points="23.01,81.127 23.011,49.876 33.507,43.816 33.507,75.068 60.571,90.693 50.075,96.754   " fill="#0023ff" data-fill-palette-color="accent"></polygon></g><g fill="#0023ff" data-fill-palette-color="accent"><polygon points="90.362,58.092 90.362,26.84 79.866,20.78 79.866,52.031 52.802,67.658 63.298,73.719   " fill="#0023ff" data-fill-palette-color="accent"></polygon></g></g></svg></g></svg></g><path d="M90.074 102.908C89.385 104.861 88.411 106.623 87.153 108.192 85.894 109.761 84.58 110.852 83.208 111.466V111.466L81.452 109.621C82.74 109.006 83.956 108.013 85.101 106.644 86.247 105.274 87.116 103.75 87.708 102.073V102.073C88.539 99.719 88.731 97.802 88.283 96.32 87.834 94.838 86.922 93.854 85.545 93.367V93.367C84.493 92.996 83.541 93.019 82.69 93.437 81.839 93.854 81.08 94.466 80.415 95.273 79.75 96.08 78.925 97.239 77.941 98.75V98.75C76.742 100.552 75.703 101.959 74.824 102.972 73.945 103.985 72.882 104.743 71.634 105.246 70.387 105.749 68.949 105.713 67.322 105.138V105.138C65.995 104.669 64.91 103.892 64.069 102.807 63.227 101.721 62.737 100.337 62.599 98.655 62.461 96.973 62.772 95.055 63.532 92.902V92.902C64.063 91.399 64.789 90.001 65.711 88.708 66.632 87.414 67.642 86.369 68.739 85.574V85.574L70.623 87.296C69.508 88.141 68.548 89.125 67.743 90.249 66.938 91.373 66.323 92.535 65.899 93.737V93.737C65.085 96.041 64.917 97.932 65.395 99.41 65.873 100.888 66.813 101.875 68.215 102.37V102.37C69.266 102.741 70.224 102.72 71.088 102.307 71.952 101.894 72.723 101.266 73.402 100.421 74.08 99.576 74.907 98.411 75.882 96.925V96.925C77.039 95.165 78.059 93.772 78.942 92.747 79.825 91.721 80.882 90.961 82.113 90.466 83.344 89.971 84.76 90.007 86.363 90.573V90.573C87.69 91.041 88.772 91.825 89.609 92.923 90.446 94.021 90.923 95.422 91.04 97.124 91.157 98.827 90.835 100.755 90.074 102.908ZM98.415 84.942L76.691 71.911 71.651 80.314 69.465 79.003 81.061 59.67 83.247 60.981 78.207 69.384 99.931 82.414ZM100.379 40.726L89.832 52.984 98.135 60.128 107.539 49.198 109.471 50.861 100.067 61.79 109.034 69.506 107.112 71.74 85.977 53.555 98.447 39.063ZM140.513 43.487C137.448 45.397 134.511 46.007 131.703 45.317 128.895 44.626 126.445 42.602 124.352 39.244V39.244L115.904 25.689 118.406 24.13 126.79 37.584C128.504 40.333 130.402 41.998 132.484 42.577 134.566 43.157 136.779 42.717 139.122 41.256V41.256C141.489 39.781 142.87 37.982 143.267 35.857 143.664 33.733 143.005 31.296 141.292 28.546V28.546L132.908 15.093 135.341 13.576 143.789 27.131C145.882 30.489 146.625 33.577 146.019 36.395 145.413 39.213 143.578 41.577 140.513 43.487ZM167.535 2.89L170.31 2.023 178.62 28.637 176.301 29.362 152.449 13.108 159.192 34.704 156.378 35.582 148.068 8.968 150.388 8.244 174.278 24.485ZM186.094 28.239L182.651 0.571 185.576 0.207 189.018 27.875ZM218.057 1.706L221.037 1.913 206.787 28.872 203.886 28.67 193.501 0 196.68 0.221 205.65 25.12ZM224.714 28.801L240.934 33.056 240.287 35.522 221.216 30.519 228.291 3.55 246.784 8.401 246.137 10.867 230.495 6.764 227.979 16.357 241.925 20.016 241.289 22.443 227.342 18.784ZM264.133 48.466L261.273 46.974 259.77 36.08C259.098 35.819 258.42 35.51 257.738 35.154V35.154L251.099 31.689 247.008 39.528 244.395 38.164 257.296 13.447 266.547 18.276C269.702 19.922 271.78 21.965 272.783 24.406 273.786 26.846 273.599 29.385 272.223 32.021V32.021C271.215 33.951 269.876 35.327 268.205 36.147 266.534 36.967 264.638 37.198 262.519 36.841V36.841ZM258.828 32.893C261.276 34.17 263.43 34.606 265.29 34.199 267.15 33.792 268.59 32.611 269.61 30.657V30.657C270.654 28.656 270.808 26.782 270.073 25.036 269.337 23.289 267.745 21.776 265.297 20.499V20.499L258.729 17.071 252.26 29.465ZM272.869 56.944C271.293 55.6 269.998 54.06 268.984 52.323 267.971 50.586 267.423 48.967 267.341 47.467V47.467L269.693 46.489C269.806 47.911 270.297 49.403 271.165 50.963 272.033 52.523 273.144 53.88 274.497 55.035V55.035C276.397 56.654 278.118 57.521 279.662 57.633 281.206 57.746 282.452 57.247 283.4 56.135V56.135C284.124 55.287 284.443 54.39 284.359 53.446 284.274 52.501 283.975 51.574 283.46 50.664 282.945 49.753 282.158 48.568 281.1 47.108V47.108C279.849 45.342 278.907 43.868 278.277 42.684 277.646 41.501 277.319 40.237 277.297 38.892 277.275 37.547 277.824 36.217 278.944 34.904V34.904C279.857 33.833 280.971 33.1 282.286 32.703 283.602 32.307 285.069 32.345 286.689 32.819 288.309 33.293 289.988 34.271 291.725 35.753V35.753C292.938 36.787 293.982 37.966 294.86 39.29 295.737 40.614 296.351 41.931 296.7 43.24V43.24L294.417 44.382C294.028 43.038 293.453 41.789 292.692 40.635 291.932 39.48 291.067 38.489 290.097 37.662V37.662C288.238 36.077 286.533 35.243 284.982 35.159 283.431 35.075 282.173 35.599 281.208 36.73V36.73C280.484 37.579 280.16 38.48 280.236 39.435 280.312 40.39 280.623 41.335 281.168 42.271 281.713 43.207 282.505 44.397 283.542 45.84V45.84C284.771 47.551 285.705 49.002 286.346 50.194 286.987 51.386 287.318 52.646 287.339 53.972 287.36 55.298 286.818 56.608 285.716 57.901V57.901C284.803 58.972 283.683 59.701 282.358 60.089 281.033 60.477 279.554 60.42 277.923 59.919 276.291 59.417 274.607 58.426 272.869 56.944ZM284.349 67.574L304.967 48.805 306.951 50.985 286.333 69.754ZM293.394 80.531L314.819 67.014 309.591 58.727 311.747 57.367 323.775 76.434 321.619 77.794 316.391 69.507 294.966 83.024ZM334.467 103.115L313.426 99.313 304.439 102.798 303.388 100.088 312.375 96.602 325.351 79.608 326.488 82.542 315.35 97.115 333.401 100.367ZM69.831 191.356C69.133 189.385 68.78 187.383 68.772 185.351 68.766 183.325 69.106 181.638 69.791 180.29V180.29L72.338 180.624C71.72 181.92 71.395 183.468 71.363 185.268 71.331 187.068 71.615 188.816 72.215 190.512V190.512C73.054 192.884 74.118 194.507 75.407 195.382 76.697 196.263 78.037 196.458 79.427 195.966V195.966C80.49 195.59 81.224 194.968 81.628 194.099 82.026 193.233 82.232 192.273 82.246 191.219 82.254 190.167 82.166 188.733 81.981 186.918V186.918C81.784 184.749 81.706 182.988 81.749 181.635 81.797 180.28 82.151 179.01 82.809 177.827 83.468 176.643 84.62 175.76 86.266 175.177V175.177C87.599 174.706 88.941 174.628 90.293 174.946 91.638 175.265 92.899 176.041 94.074 177.273 95.249 178.505 96.221 180.206 96.99 182.378V182.378C97.526 183.892 97.844 185.449 97.945 187.047 98.039 188.647 97.908 190.105 97.55 191.422V191.422L94.983 191.274C95.321 189.901 95.451 188.517 95.373 187.122 95.291 185.736 95.035 184.436 94.605 183.222V183.222C93.784 180.9 92.717 179.309 91.406 178.449 90.097 177.596 88.735 177.419 87.321 177.92V177.92C86.257 178.296 85.517 178.921 85.1 179.794 84.688 180.658 84.482 181.639 84.484 182.737 84.489 183.827 84.578 185.263 84.752 187.047V187.047C84.959 189.164 85.043 190.905 85.006 192.27 84.959 193.632 84.611 194.896 83.96 196.063 83.31 197.229 82.174 198.099 80.554 198.673V198.673C79.221 199.145 77.876 199.216 76.52 198.886 75.172 198.56 73.911 197.763 72.738 196.496 71.566 195.234 70.597 193.521 69.831 191.356ZM80.423 212.944L102.326 199.785 97.233 191.309 99.435 189.986 111.148 209.482 108.946 210.805 103.854 202.329 81.952 215.488ZM123.117 226.918L112.473 214.559 104.098 221.772 113.591 232.795 111.645 234.472 102.151 223.448 93.112 231.232 91.176 228.984 112.484 210.634 125.064 225.242ZM129.119 261.751C126.027 259.822 124.168 257.434 123.542 254.587 122.925 251.737 123.673 248.62 125.785 245.235V245.235L134.312 231.566 136.83 233.136 128.365 246.704C126.637 249.476 125.972 251.933 126.372 254.076 126.772 256.219 128.155 258.028 130.521 259.504V259.504C132.903 260.99 135.145 261.442 137.245 260.859 139.346 260.276 141.261 258.599 142.99 255.828V255.828L151.454 242.26 153.904 243.788 145.376 257.458C143.265 260.843 140.799 262.888 137.98 263.594 135.159 264.291 132.205 263.677 129.119 261.751ZM178.063 250.753L180.867 251.629 172.486 278.471 170.147 277.741 159.685 250.576 152.886 272.352 150.054 271.467 158.435 244.625 160.773 245.355 171.264 272.53ZM183.496 279.633L186.974 251.729 189.919 252.096 186.441 280ZM215.695 250.394L218.705 250.185 208.22 279.099 205.299 279.301 190.93 252.108 194.139 251.886 206.564 275.51ZM228.677 273.604L245.043 269.318 245.694 271.803 226.458 276.841 219.333 249.638 237.982 244.754 238.633 247.239 222.855 251.371 225.39 261.052 239.463 257.367 240.104 259.813 226.031 263.499ZM273.96 257.125L271.073 258.631 261.197 253.585C260.592 253.99 259.946 254.372 259.257 254.732V254.732L252.556 258.227 256.683 266.138 254.052 267.51 241.046 242.578 250.378 237.71C253.556 236.052 256.444 235.511 259.044 236.087 261.643 236.663 263.636 238.281 265.024 240.941V240.941C266.04 242.89 266.404 244.793 266.115 246.65 265.832 248.505 264.931 250.207 263.41 251.756V251.756ZM258.017 252.526C260.483 251.24 262.085 249.711 262.824 247.941 263.559 246.164 263.413 244.29 262.384 242.318V242.318C261.331 240.3 259.87 239.093 258.002 238.697 256.13 238.296 253.961 238.738 251.495 240.025V240.025L244.865 243.484 251.386 255.985ZM286.842 246.403C285.251 247.76 283.508 248.806 281.613 249.54 279.723 250.271 278.026 250.557 276.522 250.4V250.4L275.923 247.901C277.355 248.015 278.917 247.765 280.609 247.151 282.301 246.537 283.832 245.646 285.201 244.479V244.479C287.115 242.846 288.25 241.272 288.606 239.756 288.968 238.235 288.67 236.914 287.714 235.793V235.793C286.982 234.934 286.138 234.472 285.182 234.405 284.231 234.344 283.261 234.495 282.272 234.859 281.286 235.228 279.979 235.823 278.351 236.645V236.645C276.395 237.605 274.779 238.308 273.5 238.752 272.217 239.192 270.905 239.316 269.564 239.125 268.224 238.933 266.987 238.173 265.854 236.845V236.845C264.936 235.769 264.384 234.543 264.197 233.167 264.014 231.796 264.287 230.342 265.017 228.804 265.747 227.265 266.988 225.749 268.741 224.254V224.254C269.963 223.212 271.303 222.358 272.759 221.692 274.219 221.031 275.629 220.632 276.986 220.495V220.495L277.766 222.945C276.363 223.12 275.024 223.494 273.75 224.066 272.485 224.639 271.362 225.343 270.382 226.179V226.179C268.508 227.777 267.404 229.342 267.07 230.874 266.742 232.402 267.064 233.736 268.037 234.878V234.878C268.77 235.737 269.618 236.205 270.582 236.281 271.536 236.357 272.526 236.198 273.551 235.804 274.566 235.409 275.876 234.812 277.479 234.011V234.011C279.382 233.061 280.978 232.359 282.266 231.906 283.554 231.462 284.859 231.335 286.181 231.525 287.504 231.715 288.722 232.464 289.838 233.772V233.772C290.755 234.848 291.303 236.078 291.48 237.463 291.658 238.838 291.365 240.3 290.601 241.85 289.843 243.395 288.589 244.913 286.842 246.403ZM299.867 233.629L279.085 214.685 281.084 212.492 301.866 231.436ZM311.113 217.789L289.514 204.137 284.231 212.496 282.059 211.123 294.211 191.898 296.383 193.271 291.1 201.629 312.698 215.281ZM301.875 171.229L314.947 188.386 324.004 191.908 322.943 194.637 313.886 191.114 292.657 194.931 293.808 191.971 312.012 188.708 300.796 174.004ZM61.053 143.496C61.053 137.563 65.862 132.754 71.795 132.754 77.728 132.754 82.537 137.563 82.537 143.496 82.537 149.428 77.728 154.238 71.795 154.238 65.862 154.238 61.053 149.428 61.053 143.496ZM311.99 143.496C311.99 137.563 316.799 132.754 322.732 132.754 328.665 132.754 333.474 137.563 333.474 143.496 333.474 149.428 328.665 154.238 322.732 154.238 316.799 154.238 311.99 149.428 311.99 143.496Z" fill="#010c80" data-fill-palette-color="primary"></path></svg></g></svg></g></svg></g><g></g></svg></g><defs></defs></svg><rect width="395.52" height="280" fill="none" stroke="none" visibility="hidden"></rect></g></svg></g></svg>